<mxfile host="www.draw.io" modified="2020-01-10T18:41:32.315Z" agent="Mozilla/5.0 (Windows NT 10.0; Win64; x64) AppleWebKit/537.36 (KHTML, like Gecko) Chrome/79.0.3945.88 Safari/537.36" etag="0vMOrH8sC7eGs5AYxTU6" version="12.4.3" type="github" pages="1">
  <diagram id="ILspVHVsT8qx_DbT6DRt" name="Page-1">
    <mxGraphModel dx="2236" dy="2303" grid="1" gridSize="10" guides="1" tooltips="1" connect="1" arrows="1" fold="1" page="1" pageScale="1" pageWidth="827" pageHeight="1169" math="0" shadow="0">
      <root>
        <mxCell id="0"/>
        <mxCell id="1" parent="0"/>
        <mxCell id="EKbMAt9sdjQ3x5RYB2Aw-3" style="edgeStyle=orthogonalEdgeStyle;rounded=0;orthogonalLoop=1;jettySize=auto;html=1;" edge="1" parent="1" source="tB0E_YiRaNHaUSFl-zGJ-1" target="tB0E_YiRaNHaUSFl-zGJ-2">
          <mxGeometry relative="1" as="geometry"/>
        </mxCell>
        <mxCell id="tB0E_YiRaNHaUSFl-zGJ-1" value="AcEn35160000&lt;br&gt;(storage control for 35.16.01.08 enable chocolate return)" style="rounded=0;whiteSpace=wrap;html=1;fillColor=#f8cecc;strokeColor=#b85450;" parent="1" vertex="1">
          <mxGeometry x="400" y="80" width="120" height="60" as="geometry"/>
        </mxCell>
        <mxCell id="tB0E_YiRaNHaUSFl-zGJ-2" value="MPSt35160202" style="rounded=1;whiteSpace=wrap;html=1;fillColor=#d5e8d4;strokeColor=#82b366;" parent="1" vertex="1">
          <mxGeometry x="570" y="80" width="120" height="60" as="geometry"/>
        </mxCell>
        <mxCell id="EKbMAt9sdjQ3x5RYB2Aw-1" style="edgeStyle=orthogonalEdgeStyle;rounded=0;orthogonalLoop=1;jettySize=auto;html=1;" edge="1" parent="1" source="tB0E_YiRaNHaUSFl-zGJ-3" target="tB0E_YiRaNHaUSFl-zGJ-6">
          <mxGeometry relative="1" as="geometry"/>
        </mxCell>
        <mxCell id="tB0E_YiRaNHaUSFl-zGJ-3" value="DISt35160201&lt;br&gt;(FB Aasted motor)" style="rounded=0;whiteSpace=wrap;html=1;fillColor=#d5e8d4;strokeColor=#82b366;" parent="1" vertex="1">
          <mxGeometry x="60" y="80" width="120" height="60" as="geometry"/>
        </mxCell>
        <mxCell id="EKbMAt9sdjQ3x5RYB2Aw-5" style="edgeStyle=orthogonalEdgeStyle;rounded=0;orthogonalLoop=1;jettySize=auto;html=1;entryX=0;entryY=0.5;entryDx=0;entryDy=0;" edge="1" parent="1" source="tB0E_YiRaNHaUSFl-zGJ-4" target="tB0E_YiRaNHaUSFl-zGJ-5">
          <mxGeometry relative="1" as="geometry"/>
        </mxCell>
        <mxCell id="tB0E_YiRaNHaUSFl-zGJ-4" value="MPSt35160202" style="rounded=0;whiteSpace=wrap;html=1;fillColor=#d5e8d4;strokeColor=#82b366;" parent="1" vertex="1">
          <mxGeometry x="60" y="150" width="120" height="60" as="geometry"/>
        </mxCell>
        <mxCell id="EKbMAt9sdjQ3x5RYB2Aw-4" style="edgeStyle=orthogonalEdgeStyle;rounded=0;orthogonalLoop=1;jettySize=auto;html=1;entryX=0;entryY=0.5;entryDx=0;entryDy=0;" edge="1" parent="1" source="tB0E_YiRaNHaUSFl-zGJ-5" target="tB0E_YiRaNHaUSFl-zGJ-2">
          <mxGeometry relative="1" as="geometry">
            <Array as="points">
              <mxPoint x="540" y="180"/>
              <mxPoint x="540" y="110"/>
            </Array>
          </mxGeometry>
        </mxCell>
        <mxCell id="tB0E_YiRaNHaUSFl-zGJ-5" value="HBSp35160201&lt;br&gt;(help bit stop aasted drive motor)" style="rounded=0;whiteSpace=wrap;html=1;fillColor=#f8cecc;strokeColor=#b85450;" parent="1" vertex="1">
          <mxGeometry x="230" y="150" width="120" height="60" as="geometry"/>
        </mxCell>
        <mxCell id="EKbMAt9sdjQ3x5RYB2Aw-2" style="edgeStyle=orthogonalEdgeStyle;rounded=0;orthogonalLoop=1;jettySize=auto;html=1;entryX=0;entryY=0.5;entryDx=0;entryDy=0;" edge="1" parent="1" source="tB0E_YiRaNHaUSFl-zGJ-6" target="tB0E_YiRaNHaUSFl-zGJ-1">
          <mxGeometry relative="1" as="geometry"/>
        </mxCell>
        <mxCell id="tB0E_YiRaNHaUSFl-zGJ-6" value="TON&lt;br&gt;(300ms)" style="rounded=0;whiteSpace=wrap;html=1;fillColor=#dae8fc;strokeColor=#6c8ebf;" parent="1" vertex="1">
          <mxGeometry x="280" y="80" width="60" height="60" as="geometry"/>
        </mxCell>
        <mxCell id="EKbMAt9sdjQ3x5RYB2Aw-10" style="edgeStyle=orthogonalEdgeStyle;rounded=0;orthogonalLoop=1;jettySize=auto;html=1;entryX=0;entryY=0.5;entryDx=0;entryDy=0;" edge="1" parent="1" source="EKbMAt9sdjQ3x5RYB2Aw-6" target="EKbMAt9sdjQ3x5RYB2Aw-7">
          <mxGeometry relative="1" as="geometry"/>
        </mxCell>
        <mxCell id="EKbMAt9sdjQ3x5RYB2Aw-6" value="Prog35160000" style="rounded=0;whiteSpace=wrap;html=1;fillColor=#d5e8d4;strokeColor=#82b366;" vertex="1" parent="1">
          <mxGeometry x="60" y="280" width="120" height="60" as="geometry"/>
        </mxCell>
        <mxCell id="EKbMAt9sdjQ3x5RYB2Aw-7" value="Prog35160202" style="rounded=1;whiteSpace=wrap;html=1;fillColor=#d5e8d4;strokeColor=#82b366;" vertex="1" parent="1">
          <mxGeometry x="310" y="280" width="120" height="60" as="geometry"/>
        </mxCell>
        <mxCell id="EKbMAt9sdjQ3x5RYB2Aw-8" value="&lt;font style=&quot;font-size: 20px&quot;&gt;MPSt35160202&lt;/font&gt;" style="text;html=1;strokeColor=none;fillColor=none;align=center;verticalAlign=middle;whiteSpace=wrap;rounded=0;" vertex="1" parent="1">
          <mxGeometry x="330" y="30" width="120" height="20" as="geometry"/>
        </mxCell>
        <mxCell id="EKbMAt9sdjQ3x5RYB2Aw-9" value="&lt;font style=&quot;font-size: 20px&quot;&gt;Prog35160202&lt;/font&gt;" style="text;html=1;strokeColor=none;fillColor=none;align=center;verticalAlign=middle;whiteSpace=wrap;rounded=0;" vertex="1" parent="1">
          <mxGeometry x="300" y="240" width="120" height="20" as="geometry"/>
        </mxCell>
        <mxCell id="EKbMAt9sdjQ3x5RYB2Aw-11" value="&lt;font style=&quot;font-size: 20px&quot;&gt;MI_35160202 (только в блоке)&lt;/font&gt;" style="text;html=1;strokeColor=none;fillColor=none;align=center;verticalAlign=middle;whiteSpace=wrap;rounded=0;" vertex="1" parent="1">
          <mxGeometry x="250" y="500" width="340" height="20" as="geometry"/>
        </mxCell>
        <mxCell id="EKbMAt9sdjQ3x5RYB2Aw-14" style="edgeStyle=orthogonalEdgeStyle;rounded=0;orthogonalLoop=1;jettySize=auto;html=1;entryX=0;entryY=0.5;entryDx=0;entryDy=0;" edge="1" parent="1" source="EKbMAt9sdjQ3x5RYB2Aw-12" target="EKbMAt9sdjQ3x5RYB2Aw-13">
          <mxGeometry relative="1" as="geometry"/>
        </mxCell>
        <mxCell id="EKbMAt9sdjQ3x5RYB2Aw-12" value="Man_35160000" style="rounded=0;whiteSpace=wrap;html=1;fillColor=#d5e8d4;strokeColor=#82b366;" vertex="1" parent="1">
          <mxGeometry x="60" y="410" width="120" height="60" as="geometry"/>
        </mxCell>
        <mxCell id="EKbMAt9sdjQ3x5RYB2Aw-13" value="Man_35160202" style="rounded=1;whiteSpace=wrap;html=1;fillColor=#d5e8d4;strokeColor=#82b366;" vertex="1" parent="1">
          <mxGeometry x="310" y="410" width="120" height="60" as="geometry"/>
        </mxCell>
        <mxCell id="EKbMAt9sdjQ3x5RYB2Aw-15" value="&lt;font style=&quot;font-size: 20px&quot;&gt;Man_35160202&lt;/font&gt;" style="text;html=1;strokeColor=none;fillColor=none;align=center;verticalAlign=middle;whiteSpace=wrap;rounded=0;" vertex="1" parent="1">
          <mxGeometry x="300" y="370" width="120" height="20" as="geometry"/>
        </mxCell>
        <mxCell id="EKbMAt9sdjQ3x5RYB2Aw-16" value="&lt;font style=&quot;font-size: 20px&quot;&gt;MMSt35160202 (в блоке)&lt;/font&gt;" style="text;html=1;strokeColor=none;fillColor=none;align=center;verticalAlign=middle;whiteSpace=wrap;rounded=0;" vertex="1" parent="1">
          <mxGeometry x="242" y="530" width="310" height="20" as="geometry"/>
        </mxCell>
        <mxCell id="EKbMAt9sdjQ3x5RYB2Aw-17" value="&lt;font style=&quot;font-size: 20px&quot;&gt;DISt35160202 (в блоке)&lt;/font&gt;" style="text;html=1;strokeColor=none;fillColor=none;align=center;verticalAlign=middle;whiteSpace=wrap;rounded=0;" vertex="1" parent="1">
          <mxGeometry x="237" y="560" width="310" height="20" as="geometry"/>
        </mxCell>
        <mxCell id="EKbMAt9sdjQ3x5RYB2Aw-18" value="&lt;font style=&quot;font-size: 20px&quot;&gt;DITh35160202 (в блоке)&lt;/font&gt;" style="text;html=1;strokeColor=none;fillColor=none;align=center;verticalAlign=middle;whiteSpace=wrap;rounded=0;" vertex="1" parent="1">
          <mxGeometry x="237" y="590" width="310" height="20" as="geometry"/>
        </mxCell>
        <mxCell id="EKbMAt9sdjQ3x5RYB2Aw-19" value="&lt;font style=&quot;font-size: 20px&quot;&gt;MCSt35160202&lt;/font&gt;" style="text;html=1;strokeColor=none;fillColor=none;align=center;verticalAlign=middle;whiteSpace=wrap;rounded=0;" vertex="1" parent="1">
          <mxGeometry x="237" y="640" width="310" height="20" as="geometry"/>
        </mxCell>
        <mxCell id="EKbMAt9sdjQ3x5RYB2Aw-25" style="edgeStyle=orthogonalEdgeStyle;rounded=0;orthogonalLoop=1;jettySize=auto;html=1;entryX=0;entryY=0.5;entryDx=0;entryDy=0;" edge="1" parent="1" source="EKbMAt9sdjQ3x5RYB2Aw-20" target="EKbMAt9sdjQ3x5RYB2Aw-24">
          <mxGeometry relative="1" as="geometry"/>
        </mxCell>
        <mxCell id="EKbMAt9sdjQ3x5RYB2Aw-20" value="PAHH35160204" style="rounded=0;whiteSpace=wrap;html=1;fillColor=#d5e8d4;strokeColor=#82b366;" vertex="1" parent="1">
          <mxGeometry x="60" y="690" width="120" height="60" as="geometry"/>
        </mxCell>
        <mxCell id="EKbMAt9sdjQ3x5RYB2Aw-26" style="edgeStyle=orthogonalEdgeStyle;rounded=0;orthogonalLoop=1;jettySize=auto;html=1;" edge="1" parent="1" source="EKbMAt9sdjQ3x5RYB2Aw-21">
          <mxGeometry relative="1" as="geometry">
            <mxPoint x="390" y="720" as="targetPoint"/>
            <Array as="points">
              <mxPoint x="310" y="800"/>
              <mxPoint x="310" y="720"/>
            </Array>
          </mxGeometry>
        </mxCell>
        <mxCell id="EKbMAt9sdjQ3x5RYB2Aw-21" value="PAHH35160205" style="rounded=0;whiteSpace=wrap;html=1;fillColor=#d5e8d4;strokeColor=#82b366;" vertex="1" parent="1">
          <mxGeometry x="60" y="770" width="120" height="60" as="geometry"/>
        </mxCell>
        <mxCell id="EKbMAt9sdjQ3x5RYB2Aw-27" style="edgeStyle=orthogonalEdgeStyle;rounded=0;orthogonalLoop=1;jettySize=auto;html=1;entryX=0;entryY=0.5;entryDx=0;entryDy=0;" edge="1" parent="1" source="EKbMAt9sdjQ3x5RYB2Aw-23" target="EKbMAt9sdjQ3x5RYB2Aw-24">
          <mxGeometry relative="1" as="geometry">
            <Array as="points">
              <mxPoint x="310" y="880"/>
              <mxPoint x="310" y="720"/>
            </Array>
          </mxGeometry>
        </mxCell>
        <mxCell id="EKbMAt9sdjQ3x5RYB2Aw-23" value="MCSt35160202" style="rounded=0;whiteSpace=wrap;html=1;fillColor=#f8cecc;strokeColor=#b85450;" vertex="1" parent="1">
          <mxGeometry x="60" y="850" width="120" height="60" as="geometry"/>
        </mxCell>
        <mxCell id="EKbMAt9sdjQ3x5RYB2Aw-24" value="Send_R02_C35White_b6" style="rounded=1;whiteSpace=wrap;html=1;fillColor=#d5e8d4;strokeColor=#82b366;" vertex="1" parent="1">
          <mxGeometry x="390" y="690" width="160" height="60" as="geometry"/>
        </mxCell>
        <mxCell id="EKbMAt9sdjQ3x5RYB2Aw-28" value="&lt;font style=&quot;font-size: 20px&quot;&gt;MAWS35160202 (в блоке)&lt;/font&gt;" style="text;html=1;strokeColor=none;fillColor=none;align=center;verticalAlign=middle;whiteSpace=wrap;rounded=0;" vertex="1" parent="1">
          <mxGeometry x="230" y="920" width="310" height="20" as="geometry"/>
        </mxCell>
        <mxCell id="EKbMAt9sdjQ3x5RYB2Aw-29" value="&lt;font style=&quot;font-size: 20px&quot;&gt;MATh35160202 (в блоке)&lt;/font&gt;" style="text;html=1;strokeColor=none;fillColor=none;align=center;verticalAlign=middle;whiteSpace=wrap;rounded=0;" vertex="1" parent="1">
          <mxGeometry x="230" y="950" width="310" height="20" as="geometry"/>
        </mxCell>
        <mxCell id="EKbMAt9sdjQ3x5RYB2Aw-30" value="&lt;font style=&quot;font-size: 20px&quot;&gt;MACb35160202 (на пищалку и общий аларм)&lt;/font&gt;" style="text;html=1;strokeColor=none;fillColor=none;align=center;verticalAlign=middle;whiteSpace=wrap;rounded=0;" vertex="1" parent="1">
          <mxGeometry x="155" y="990" width="460" height="20" as="geometry"/>
        </mxCell>
        <mxCell id="EKbMAt9sdjQ3x5RYB2Aw-31" value="&lt;font style=&quot;font-size: 20px&quot;&gt;Мотор&lt;/font&gt;" style="text;html=1;strokeColor=none;fillColor=none;align=center;verticalAlign=middle;whiteSpace=wrap;rounded=0;" vertex="1" parent="1">
          <mxGeometry x="325" width="120" height="20" as="geometry"/>
        </mxCell>
        <mxCell id="EKbMAt9sdjQ3x5RYB2Aw-32" value="&lt;font style=&quot;font-size: 20px&quot;&gt;Клапан&lt;/font&gt;" style="text;html=1;strokeColor=none;fillColor=none;align=center;verticalAlign=middle;whiteSpace=wrap;rounded=0;" vertex="1" parent="1">
          <mxGeometry x="1200" width="120" height="20" as="geometry"/>
        </mxCell>
        <mxCell id="EKbMAt9sdjQ3x5RYB2Aw-34" value="&lt;font style=&quot;font-size: 20px&quot;&gt;VPOp35160209&lt;/font&gt;" style="text;html=1;strokeColor=none;fillColor=none;align=center;verticalAlign=middle;whiteSpace=wrap;rounded=0;" vertex="1" parent="1">
          <mxGeometry x="1200" y="30" width="120" height="20" as="geometry"/>
        </mxCell>
        <mxCell id="EKbMAt9sdjQ3x5RYB2Aw-35" value="MPSt35160202" style="rounded=1;whiteSpace=wrap;html=1;fillColor=#d5e8d4;strokeColor=#82b366;" vertex="1" parent="1">
          <mxGeometry x="1250" y="80" width="120" height="60" as="geometry"/>
        </mxCell>
        <mxCell id="EKbMAt9sdjQ3x5RYB2Aw-39" style="edgeStyle=orthogonalEdgeStyle;rounded=0;orthogonalLoop=1;jettySize=auto;html=1;" edge="1" parent="1" source="EKbMAt9sdjQ3x5RYB2Aw-36" target="EKbMAt9sdjQ3x5RYB2Aw-35">
          <mxGeometry relative="1" as="geometry"/>
        </mxCell>
        <mxCell id="EKbMAt9sdjQ3x5RYB2Aw-36" value="HBOp35160209" style="rounded=0;whiteSpace=wrap;html=1;fillColor=#d5e8d4;strokeColor=#82b366;" vertex="1" parent="1">
          <mxGeometry x="1060" y="80" width="120" height="60" as="geometry"/>
        </mxCell>
        <mxCell id="EKbMAt9sdjQ3x5RYB2Aw-38" style="edgeStyle=orthogonalEdgeStyle;rounded=0;orthogonalLoop=1;jettySize=auto;html=1;" edge="1" parent="1" source="EKbMAt9sdjQ3x5RYB2Aw-37" target="EKbMAt9sdjQ3x5RYB2Aw-36">
          <mxGeometry relative="1" as="geometry"/>
        </mxCell>
        <mxCell id="EKbMAt9sdjQ3x5RYB2Aw-37" value="Stop35160000" style="rounded=0;whiteSpace=wrap;html=1;fillColor=#f8cecc;strokeColor=#b85450;" vertex="1" parent="1">
          <mxGeometry x="880" y="80" width="120" height="60" as="geometry"/>
        </mxCell>
        <mxCell id="EKbMAt9sdjQ3x5RYB2Aw-47" style="edgeStyle=orthogonalEdgeStyle;rounded=0;orthogonalLoop=1;jettySize=auto;html=1;entryX=0;entryY=0.5;entryDx=0;entryDy=0;" edge="1" parent="1" source="EKbMAt9sdjQ3x5RYB2Aw-40" target="EKbMAt9sdjQ3x5RYB2Aw-43">
          <mxGeometry relative="1" as="geometry"/>
        </mxCell>
        <mxCell id="EKbMAt9sdjQ3x5RYB2Aw-48" style="edgeStyle=orthogonalEdgeStyle;rounded=0;orthogonalLoop=1;jettySize=auto;html=1;entryX=0;entryY=0.5;entryDx=0;entryDy=0;" edge="1" parent="1" source="EKbMAt9sdjQ3x5RYB2Aw-40" target="EKbMAt9sdjQ3x5RYB2Aw-42">
          <mxGeometry relative="1" as="geometry">
            <Array as="points">
              <mxPoint x="1110" y="330"/>
              <mxPoint x="1110" y="240"/>
            </Array>
          </mxGeometry>
        </mxCell>
        <mxCell id="EKbMAt9sdjQ3x5RYB2Aw-56" style="edgeStyle=orthogonalEdgeStyle;rounded=0;orthogonalLoop=1;jettySize=auto;html=1;entryX=0;entryY=0.5;entryDx=0;entryDy=0;" edge="1" parent="1" source="EKbMAt9sdjQ3x5RYB2Aw-40" target="EKbMAt9sdjQ3x5RYB2Aw-41">
          <mxGeometry relative="1" as="geometry"/>
        </mxCell>
        <mxCell id="EKbMAt9sdjQ3x5RYB2Aw-40" value="HBCl35160209" style="rounded=0;whiteSpace=wrap;html=1;fillColor=#f8cecc;strokeColor=#b85450;" vertex="1" parent="1">
          <mxGeometry x="860" y="300" width="120" height="60" as="geometry"/>
        </mxCell>
        <mxCell id="EKbMAt9sdjQ3x5RYB2Aw-57" style="edgeStyle=orthogonalEdgeStyle;rounded=0;orthogonalLoop=1;jettySize=auto;html=1;" edge="1" parent="1" source="EKbMAt9sdjQ3x5RYB2Aw-41" target="EKbMAt9sdjQ3x5RYB2Aw-53">
          <mxGeometry relative="1" as="geometry"/>
        </mxCell>
        <mxCell id="EKbMAt9sdjQ3x5RYB2Aw-41" value="DISt35160108" style="rounded=0;whiteSpace=wrap;html=1;fillColor=#d5e8d4;strokeColor=#82b366;" vertex="1" parent="1">
          <mxGeometry x="1040" y="460" width="120" height="60" as="geometry"/>
        </mxCell>
        <mxCell id="EKbMAt9sdjQ3x5RYB2Aw-51" style="edgeStyle=orthogonalEdgeStyle;rounded=0;orthogonalLoop=1;jettySize=auto;html=1;entryX=0;entryY=0.5;entryDx=0;entryDy=0;" edge="1" parent="1" source="EKbMAt9sdjQ3x5RYB2Aw-42" target="EKbMAt9sdjQ3x5RYB2Aw-44">
          <mxGeometry relative="1" as="geometry"/>
        </mxCell>
        <mxCell id="EKbMAt9sdjQ3x5RYB2Aw-42" value="HBOp35160209" style="rounded=0;whiteSpace=wrap;html=1;fillColor=#d5e8d4;strokeColor=#82b366;" vertex="1" parent="1">
          <mxGeometry x="1340" y="210" width="120" height="60" as="geometry"/>
        </mxCell>
        <mxCell id="EKbMAt9sdjQ3x5RYB2Aw-49" style="edgeStyle=orthogonalEdgeStyle;rounded=0;orthogonalLoop=1;jettySize=auto;html=1;entryX=0;entryY=0.5;entryDx=0;entryDy=0;" edge="1" parent="1" source="EKbMAt9sdjQ3x5RYB2Aw-43" target="EKbMAt9sdjQ3x5RYB2Aw-44">
          <mxGeometry relative="1" as="geometry"/>
        </mxCell>
        <mxCell id="EKbMAt9sdjQ3x5RYB2Aw-43" value="PFR: PDAH35160200" style="rounded=0;whiteSpace=wrap;html=1;fillColor=#d5e8d4;strokeColor=#82b366;" vertex="1" parent="1">
          <mxGeometry x="1340" y="300" width="120" height="60" as="geometry"/>
        </mxCell>
        <mxCell id="EKbMAt9sdjQ3x5RYB2Aw-44" value="HBOp35160209" style="rounded=1;whiteSpace=wrap;html=1;fillColor=#d5e8d4;strokeColor=#82b366;" vertex="1" parent="1">
          <mxGeometry x="1560" y="250" width="120" height="60" as="geometry"/>
        </mxCell>
        <mxCell id="EKbMAt9sdjQ3x5RYB2Aw-79" style="edgeStyle=orthogonalEdgeStyle;rounded=0;orthogonalLoop=1;jettySize=auto;html=1;entryX=0;entryY=0.5;entryDx=0;entryDy=0;" edge="1" parent="1" source="EKbMAt9sdjQ3x5RYB2Aw-52" target="EKbMAt9sdjQ3x5RYB2Aw-74">
          <mxGeometry relative="1" as="geometry"/>
        </mxCell>
        <mxCell id="EKbMAt9sdjQ3x5RYB2Aw-84" style="edgeStyle=orthogonalEdgeStyle;rounded=0;orthogonalLoop=1;jettySize=auto;html=1;entryX=0;entryY=0.5;entryDx=0;entryDy=0;" edge="1" parent="1" source="EKbMAt9sdjQ3x5RYB2Aw-52" target="EKbMAt9sdjQ3x5RYB2Aw-44">
          <mxGeometry relative="1" as="geometry">
            <Array as="points">
              <mxPoint x="1490" y="515"/>
              <mxPoint x="1490" y="360"/>
              <mxPoint x="1540" y="360"/>
              <mxPoint x="1540" y="280"/>
            </Array>
          </mxGeometry>
        </mxCell>
        <mxCell id="EKbMAt9sdjQ3x5RYB2Aw-52" value="CTU" style="rounded=0;whiteSpace=wrap;html=1;fillColor=#dae8fc;strokeColor=#6c8ebf;" vertex="1" parent="1">
          <mxGeometry x="1390" y="390" width="80" height="250" as="geometry"/>
        </mxCell>
        <mxCell id="EKbMAt9sdjQ3x5RYB2Aw-59" style="edgeStyle=orthogonalEdgeStyle;rounded=0;orthogonalLoop=1;jettySize=auto;html=1;entryX=0;entryY=0.25;entryDx=0;entryDy=0;" edge="1" parent="1" source="EKbMAt9sdjQ3x5RYB2Aw-53" target="EKbMAt9sdjQ3x5RYB2Aw-52">
          <mxGeometry relative="1" as="geometry"/>
        </mxCell>
        <mxCell id="EKbMAt9sdjQ3x5RYB2Aw-53" value="OneShot_1M" style="rounded=0;whiteSpace=wrap;html=1;fillColor=#d5e8d4;strokeColor=#82b366;" vertex="1" parent="1">
          <mxGeometry x="1190" y="460" width="120" height="60" as="geometry"/>
        </mxCell>
        <mxCell id="EKbMAt9sdjQ3x5RYB2Aw-64" style="edgeStyle=orthogonalEdgeStyle;rounded=0;orthogonalLoop=1;jettySize=auto;html=1;" edge="1" parent="1" source="EKbMAt9sdjQ3x5RYB2Aw-60" target="EKbMAt9sdjQ3x5RYB2Aw-52">
          <mxGeometry relative="1" as="geometry">
            <Array as="points">
              <mxPoint x="1320" y="550"/>
              <mxPoint x="1320" y="515"/>
            </Array>
          </mxGeometry>
        </mxCell>
        <mxCell id="EKbMAt9sdjQ3x5RYB2Aw-60" value="HBCl35160209" style="rounded=0;whiteSpace=wrap;html=1;fillColor=#d5e8d4;strokeColor=#82b366;" vertex="1" parent="1">
          <mxGeometry x="860" y="520" width="120" height="60" as="geometry"/>
        </mxCell>
        <mxCell id="EKbMAt9sdjQ3x5RYB2Aw-65" value="CU" style="text;html=1;strokeColor=none;fillColor=none;align=center;verticalAlign=middle;whiteSpace=wrap;rounded=0;" vertex="1" parent="1">
          <mxGeometry x="1350" y="430" width="40" height="20" as="geometry"/>
        </mxCell>
        <mxCell id="EKbMAt9sdjQ3x5RYB2Aw-67" value="R" style="text;html=1;strokeColor=none;fillColor=none;align=center;verticalAlign=middle;whiteSpace=wrap;rounded=0;" vertex="1" parent="1">
          <mxGeometry x="1350" y="490" width="40" height="20" as="geometry"/>
        </mxCell>
        <mxCell id="EKbMAt9sdjQ3x5RYB2Aw-73" value="PV" style="text;html=1;strokeColor=none;fillColor=none;align=center;verticalAlign=middle;whiteSpace=wrap;rounded=0;" vertex="1" parent="1">
          <mxGeometry x="1350" y="590" width="40" height="20" as="geometry"/>
        </mxCell>
        <mxCell id="EKbMAt9sdjQ3x5RYB2Aw-80" style="edgeStyle=orthogonalEdgeStyle;rounded=0;orthogonalLoop=1;jettySize=auto;html=1;" edge="1" parent="1" source="EKbMAt9sdjQ3x5RYB2Aw-74" target="EKbMAt9sdjQ3x5RYB2Aw-75">
          <mxGeometry relative="1" as="geometry"/>
        </mxCell>
        <mxCell id="EKbMAt9sdjQ3x5RYB2Aw-74" value="HBCl35160209" style="rounded=0;whiteSpace=wrap;html=1;fillColor=#f8cecc;strokeColor=#b85450;" vertex="1" parent="1">
          <mxGeometry x="1510" y="485" width="120" height="60" as="geometry"/>
        </mxCell>
        <mxCell id="EKbMAt9sdjQ3x5RYB2Aw-82" style="edgeStyle=orthogonalEdgeStyle;rounded=0;orthogonalLoop=1;jettySize=auto;html=1;entryX=0;entryY=0.25;entryDx=0;entryDy=0;" edge="1" parent="1" source="EKbMAt9sdjQ3x5RYB2Aw-75" target="EKbMAt9sdjQ3x5RYB2Aw-76">
          <mxGeometry relative="1" as="geometry"/>
        </mxCell>
        <mxCell id="EKbMAt9sdjQ3x5RYB2Aw-75" value="PDAH35160200" style="rounded=0;whiteSpace=wrap;html=1;fillColor=#f8cecc;strokeColor=#b85450;" vertex="1" parent="1">
          <mxGeometry x="1670" y="485" width="120" height="60" as="geometry"/>
        </mxCell>
        <mxCell id="EKbMAt9sdjQ3x5RYB2Aw-83" style="edgeStyle=orthogonalEdgeStyle;rounded=0;orthogonalLoop=1;jettySize=auto;html=1;entryX=0;entryY=0.5;entryDx=0;entryDy=0;" edge="1" parent="1" source="EKbMAt9sdjQ3x5RYB2Aw-76" target="EKbMAt9sdjQ3x5RYB2Aw-77">
          <mxGeometry relative="1" as="geometry">
            <Array as="points">
              <mxPoint x="1940" y="510"/>
              <mxPoint x="1940" y="510"/>
            </Array>
          </mxGeometry>
        </mxCell>
        <mxCell id="EKbMAt9sdjQ3x5RYB2Aw-76" value="TON" style="rounded=0;whiteSpace=wrap;html=1;fillColor=#dae8fc;strokeColor=#6c8ebf;" vertex="1" parent="1">
          <mxGeometry x="1840" y="480" width="80" height="147.5" as="geometry"/>
        </mxCell>
        <mxCell id="EKbMAt9sdjQ3x5RYB2Aw-77" value="HBCl35160209" style="rounded=1;whiteSpace=wrap;html=1;fillColor=#d5e8d4;strokeColor=#82b366;" vertex="1" parent="1">
          <mxGeometry x="1990" y="480" width="120" height="60" as="geometry"/>
        </mxCell>
        <mxCell id="EKbMAt9sdjQ3x5RYB2Aw-78" value="PV" style="text;html=1;strokeColor=none;fillColor=none;align=center;verticalAlign=middle;whiteSpace=wrap;rounded=0;" vertex="1" parent="1">
          <mxGeometry x="1780" y="580" width="40" height="20" as="geometry"/>
        </mxCell>
        <mxCell id="EKbMAt9sdjQ3x5RYB2Aw-85" value="&lt;font style=&quot;font-size: 16px&quot;&gt;TmWt35160209&lt;/font&gt;" style="text;html=1;strokeColor=none;fillColor=none;align=center;verticalAlign=middle;whiteSpace=wrap;rounded=0;" vertex="1" parent="1">
          <mxGeometry x="1240" y="610" width="160" height="20" as="geometry"/>
        </mxCell>
        <mxCell id="EKbMAt9sdjQ3x5RYB2Aw-86" value="&lt;font style=&quot;font-size: 16px&quot;&gt;HROp35160209&lt;/font&gt;" style="text;html=1;strokeColor=none;fillColor=none;align=center;verticalAlign=middle;whiteSpace=wrap;rounded=0;" vertex="1" parent="1">
          <mxGeometry x="1690" y="600" width="160" height="20" as="geometry"/>
        </mxCell>
        <mxCell id="EKbMAt9sdjQ3x5RYB2Aw-90" style="edgeStyle=orthogonalEdgeStyle;rounded=0;orthogonalLoop=1;jettySize=auto;html=1;" edge="1" parent="1" source="EKbMAt9sdjQ3x5RYB2Aw-87" target="EKbMAt9sdjQ3x5RYB2Aw-88">
          <mxGeometry relative="1" as="geometry"/>
        </mxCell>
        <mxCell id="EKbMAt9sdjQ3x5RYB2Aw-87" value="Prog35160000" style="rounded=0;whiteSpace=wrap;html=1;fillColor=#d5e8d4;strokeColor=#82b366;" vertex="1" parent="1">
          <mxGeometry x="880" y="740" width="120" height="60" as="geometry"/>
        </mxCell>
        <mxCell id="EKbMAt9sdjQ3x5RYB2Aw-88" value="Prog35160209" style="rounded=1;whiteSpace=wrap;html=1;fillColor=#d5e8d4;strokeColor=#82b366;" vertex="1" parent="1">
          <mxGeometry x="1130" y="740" width="120" height="60" as="geometry"/>
        </mxCell>
        <mxCell id="EKbMAt9sdjQ3x5RYB2Aw-89" value="&lt;font style=&quot;font-size: 20px&quot;&gt;Prog35160209&lt;/font&gt;" style="text;html=1;strokeColor=none;fillColor=none;align=center;verticalAlign=middle;whiteSpace=wrap;rounded=0;" vertex="1" parent="1">
          <mxGeometry x="1120" y="700" width="120" height="20" as="geometry"/>
        </mxCell>
        <mxCell id="EKbMAt9sdjQ3x5RYB2Aw-91" style="edgeStyle=orthogonalEdgeStyle;rounded=0;orthogonalLoop=1;jettySize=auto;html=1;" edge="1" source="EKbMAt9sdjQ3x5RYB2Aw-92" target="EKbMAt9sdjQ3x5RYB2Aw-93" parent="1">
          <mxGeometry relative="1" as="geometry"/>
        </mxCell>
        <mxCell id="EKbMAt9sdjQ3x5RYB2Aw-92" value="Man_35160000" style="rounded=0;whiteSpace=wrap;html=1;fillColor=#d5e8d4;strokeColor=#82b366;" vertex="1" parent="1">
          <mxGeometry x="880" y="860" width="120" height="60" as="geometry"/>
        </mxCell>
        <mxCell id="EKbMAt9sdjQ3x5RYB2Aw-93" value="Man_35160209" style="rounded=1;whiteSpace=wrap;html=1;fillColor=#d5e8d4;strokeColor=#82b366;" vertex="1" parent="1">
          <mxGeometry x="1130" y="860" width="120" height="60" as="geometry"/>
        </mxCell>
        <mxCell id="EKbMAt9sdjQ3x5RYB2Aw-94" value="&lt;font style=&quot;font-size: 20px&quot;&gt;Man_35160209&lt;/font&gt;" style="text;html=1;strokeColor=none;fillColor=none;align=center;verticalAlign=middle;whiteSpace=wrap;rounded=0;" vertex="1" parent="1">
          <mxGeometry x="1120" y="820" width="120" height="20" as="geometry"/>
        </mxCell>
        <mxCell id="EKbMAt9sdjQ3x5RYB2Aw-100" style="edgeStyle=orthogonalEdgeStyle;rounded=0;orthogonalLoop=1;jettySize=auto;html=1;entryX=0.5;entryY=0;entryDx=0;entryDy=0;" edge="1" parent="1" source="EKbMAt9sdjQ3x5RYB2Aw-95" target="EKbMAt9sdjQ3x5RYB2Aw-98">
          <mxGeometry relative="1" as="geometry"/>
        </mxCell>
        <mxCell id="EKbMAt9sdjQ3x5RYB2Aw-95" value="&lt;font style=&quot;font-size: 20px&quot;&gt;VI_35160209&lt;/font&gt;" style="text;html=1;strokeColor=none;fillColor=none;align=center;verticalAlign=middle;whiteSpace=wrap;rounded=0;" vertex="1" parent="1">
          <mxGeometry x="890" y="950" width="120" height="20" as="geometry"/>
        </mxCell>
        <mxCell id="EKbMAt9sdjQ3x5RYB2Aw-99" style="edgeStyle=orthogonalEdgeStyle;rounded=0;orthogonalLoop=1;jettySize=auto;html=1;entryX=0.25;entryY=1;entryDx=0;entryDy=0;" edge="1" parent="1" source="EKbMAt9sdjQ3x5RYB2Aw-97" target="EKbMAt9sdjQ3x5RYB2Aw-98">
          <mxGeometry relative="1" as="geometry"/>
        </mxCell>
        <mxCell id="EKbMAt9sdjQ3x5RYB2Aw-97" value="&lt;font style=&quot;font-size: 20px&quot;&gt;VMOp35160209&lt;/font&gt;" style="text;html=1;strokeColor=none;fillColor=none;align=center;verticalAlign=middle;whiteSpace=wrap;rounded=0;" vertex="1" parent="1">
          <mxGeometry x="900" y="980" width="120" height="20" as="geometry"/>
        </mxCell>
        <mxCell id="EKbMAt9sdjQ3x5RYB2Aw-98" value="&lt;span style=&quot;font-size: 20px&quot;&gt;в блоке&lt;/span&gt;" style="text;html=1;strokeColor=none;fillColor=none;align=center;verticalAlign=middle;whiteSpace=wrap;rounded=0;" vertex="1" parent="1">
          <mxGeometry x="1070" y="960" width="120" height="20" as="geometry"/>
        </mxCell>
        <mxCell id="EKbMAt9sdjQ3x5RYB2Aw-102" style="edgeStyle=orthogonalEdgeStyle;rounded=0;orthogonalLoop=1;jettySize=auto;html=1;entryX=0.5;entryY=1;entryDx=0;entryDy=0;" edge="1" parent="1" source="EKbMAt9sdjQ3x5RYB2Aw-101" target="EKbMAt9sdjQ3x5RYB2Aw-98">
          <mxGeometry relative="1" as="geometry"/>
        </mxCell>
        <mxCell id="EKbMAt9sdjQ3x5RYB2Aw-101" value="&lt;font style=&quot;font-size: 20px&quot;&gt;VCOp35160209&lt;/font&gt;" style="text;html=1;strokeColor=none;fillColor=none;align=center;verticalAlign=middle;whiteSpace=wrap;rounded=0;" vertex="1" parent="1">
          <mxGeometry x="900" y="1010" width="120" height="20" as="geometry"/>
        </mxCell>
        <mxCell id="EKbMAt9sdjQ3x5RYB2Aw-106" style="edgeStyle=orthogonalEdgeStyle;rounded=0;orthogonalLoop=1;jettySize=auto;html=1;entryX=0.75;entryY=1;entryDx=0;entryDy=0;" edge="1" parent="1" source="EKbMAt9sdjQ3x5RYB2Aw-103" target="EKbMAt9sdjQ3x5RYB2Aw-98">
          <mxGeometry relative="1" as="geometry"/>
        </mxCell>
        <mxCell id="EKbMAt9sdjQ3x5RYB2Aw-103" value="&lt;font style=&quot;font-size: 20px&quot;&gt;FbOp35160209&lt;/font&gt;" style="text;html=1;strokeColor=none;fillColor=none;align=center;verticalAlign=middle;whiteSpace=wrap;rounded=0;" vertex="1" parent="1">
          <mxGeometry x="900" y="1040" width="120" height="20" as="geometry"/>
        </mxCell>
        <mxCell id="EKbMAt9sdjQ3x5RYB2Aw-107" style="edgeStyle=orthogonalEdgeStyle;rounded=0;orthogonalLoop=1;jettySize=auto;html=1;entryX=1;entryY=0.25;entryDx=0;entryDy=0;" edge="1" parent="1" source="EKbMAt9sdjQ3x5RYB2Aw-104" target="EKbMAt9sdjQ3x5RYB2Aw-98">
          <mxGeometry relative="1" as="geometry"/>
        </mxCell>
        <mxCell id="EKbMAt9sdjQ3x5RYB2Aw-104" value="&lt;font style=&quot;font-size: 20px&quot;&gt;FbCl35160209&lt;/font&gt;" style="text;html=1;strokeColor=none;fillColor=none;align=center;verticalAlign=middle;whiteSpace=wrap;rounded=0;" vertex="1" parent="1">
          <mxGeometry x="890" y="1070" width="120" height="20" as="geometry"/>
        </mxCell>
        <mxCell id="EKbMAt9sdjQ3x5RYB2Aw-105" value="&lt;font style=&quot;font-size: 20px&quot;&gt;VAFb35160209 (на пищалку и в блоке)&lt;/font&gt;" style="text;html=1;strokeColor=none;fillColor=none;align=center;verticalAlign=middle;whiteSpace=wrap;rounded=0;" vertex="1" parent="1">
          <mxGeometry x="850" y="1100" width="430" height="20" as="geometry"/>
        </mxCell>
        <mxCell id="EKbMAt9sdjQ3x5RYB2Aw-109" value="&lt;font style=&quot;font-size: 20px&quot;&gt;Датчик ПОСЛЕ&lt;/font&gt;" style="text;html=1;strokeColor=none;fillColor=none;align=center;verticalAlign=middle;whiteSpace=wrap;rounded=0;" vertex="1" parent="1">
          <mxGeometry x="2855" y="15" width="170" height="20" as="geometry"/>
        </mxCell>
        <mxCell id="EKbMAt9sdjQ3x5RYB2Aw-110" value="&lt;font style=&quot;font-size: 20px&quot;&gt;PEPm35160205&lt;/font&gt;" style="text;html=1;strokeColor=none;fillColor=none;align=center;verticalAlign=middle;whiteSpace=wrap;rounded=0;" vertex="1" parent="1">
          <mxGeometry x="2880" y="45" width="120" height="20" as="geometry"/>
        </mxCell>
        <mxCell id="EKbMAt9sdjQ3x5RYB2Aw-111" value="PEPm35160205" style="rounded=1;whiteSpace=wrap;html=1;fillColor=#d5e8d4;strokeColor=#82b366;" vertex="1" parent="1">
          <mxGeometry x="2860" y="110" width="120" height="60" as="geometry"/>
        </mxCell>
        <mxCell id="EKbMAt9sdjQ3x5RYB2Aw-115" style="edgeStyle=orthogonalEdgeStyle;rounded=0;orthogonalLoop=1;jettySize=auto;html=1;entryX=0;entryY=0.5;entryDx=0;entryDy=0;" edge="1" parent="1" source="EKbMAt9sdjQ3x5RYB2Aw-113" target="EKbMAt9sdjQ3x5RYB2Aw-114">
          <mxGeometry relative="1" as="geometry"/>
        </mxCell>
        <mxCell id="EKbMAt9sdjQ3x5RYB2Aw-113" value="PEAI35160205" style="rounded=0;whiteSpace=wrap;html=1;fillColor=#d5e8d4;strokeColor=#82b366;" vertex="1" parent="1">
          <mxGeometry x="2550" y="110" width="120" height="60" as="geometry"/>
        </mxCell>
        <mxCell id="EKbMAt9sdjQ3x5RYB2Aw-116" style="edgeStyle=orthogonalEdgeStyle;rounded=0;orthogonalLoop=1;jettySize=auto;html=1;entryX=0;entryY=0.5;entryDx=0;entryDy=0;" edge="1" parent="1" source="EKbMAt9sdjQ3x5RYB2Aw-114" target="EKbMAt9sdjQ3x5RYB2Aw-111">
          <mxGeometry relative="1" as="geometry"/>
        </mxCell>
        <mxCell id="EKbMAt9sdjQ3x5RYB2Aw-114" value="COPY AI" style="rounded=0;whiteSpace=wrap;html=1;fillColor=#dae8fc;strokeColor=#6c8ebf;" vertex="1" parent="1">
          <mxGeometry x="2730" y="106.25" width="80" height="67.5" as="geometry"/>
        </mxCell>
        <mxCell id="EKbMAt9sdjQ3x5RYB2Aw-122" style="edgeStyle=orthogonalEdgeStyle;rounded=0;orthogonalLoop=1;jettySize=auto;html=1;entryX=0;entryY=0.5;entryDx=0;entryDy=0;" edge="1" parent="1" source="EKbMAt9sdjQ3x5RYB2Aw-117" target="EKbMAt9sdjQ3x5RYB2Aw-119">
          <mxGeometry relative="1" as="geometry"/>
        </mxCell>
        <mxCell id="EKbMAt9sdjQ3x5RYB2Aw-117" value="PEPm35160204" style="rounded=0;whiteSpace=wrap;html=1;fillColor=#d5e8d4;strokeColor=#82b366;" vertex="1" parent="1">
          <mxGeometry x="2540" y="235" width="120" height="60" as="geometry"/>
        </mxCell>
        <mxCell id="EKbMAt9sdjQ3x5RYB2Aw-123" style="edgeStyle=orthogonalEdgeStyle;rounded=0;orthogonalLoop=1;jettySize=auto;html=1;entryX=0;entryY=0.5;entryDx=0;entryDy=0;" edge="1" parent="1" source="EKbMAt9sdjQ3x5RYB2Aw-118" target="EKbMAt9sdjQ3x5RYB2Aw-119">
          <mxGeometry relative="1" as="geometry"/>
        </mxCell>
        <mxCell id="EKbMAt9sdjQ3x5RYB2Aw-118" value="PEPm35160205" style="rounded=0;whiteSpace=wrap;html=1;fillColor=#d5e8d4;strokeColor=#82b366;" vertex="1" parent="1">
          <mxGeometry x="2540" y="305" width="120" height="60" as="geometry"/>
        </mxCell>
        <mxCell id="EKbMAt9sdjQ3x5RYB2Aw-121" style="edgeStyle=orthogonalEdgeStyle;rounded=0;orthogonalLoop=1;jettySize=auto;html=1;entryX=0;entryY=0.25;entryDx=0;entryDy=0;" edge="1" parent="1" source="EKbMAt9sdjQ3x5RYB2Aw-119" target="EKbMAt9sdjQ3x5RYB2Aw-120">
          <mxGeometry relative="1" as="geometry"/>
        </mxCell>
        <mxCell id="EKbMAt9sdjQ3x5RYB2Aw-126" style="edgeStyle=orthogonalEdgeStyle;rounded=0;orthogonalLoop=1;jettySize=auto;html=1;entryX=0;entryY=0.5;entryDx=0;entryDy=0;" edge="1" parent="1" source="EKbMAt9sdjQ3x5RYB2Aw-119" target="EKbMAt9sdjQ3x5RYB2Aw-124">
          <mxGeometry relative="1" as="geometry">
            <Array as="points">
              <mxPoint x="2770" y="355"/>
            </Array>
          </mxGeometry>
        </mxCell>
        <mxCell id="EKbMAt9sdjQ3x5RYB2Aw-119" value="SUB" style="rounded=0;whiteSpace=wrap;html=1;fillColor=#dae8fc;strokeColor=#6c8ebf;" vertex="1" parent="1">
          <mxGeometry x="2730" y="230" width="80" height="67.5" as="geometry"/>
        </mxCell>
        <mxCell id="EKbMAt9sdjQ3x5RYB2Aw-120" value="GT" style="rounded=0;whiteSpace=wrap;html=1;fillColor=#dae8fc;strokeColor=#6c8ebf;" vertex="1" parent="1">
          <mxGeometry x="2880" y="230" width="80" height="90" as="geometry"/>
        </mxCell>
        <mxCell id="EKbMAt9sdjQ3x5RYB2Aw-124" value="LE" style="rounded=0;whiteSpace=wrap;html=1;fillColor=#dae8fc;strokeColor=#6c8ebf;" vertex="1" parent="1">
          <mxGeometry x="3060" y="310" width="80" height="90" as="geometry"/>
        </mxCell>
        <mxCell id="EKbMAt9sdjQ3x5RYB2Aw-128" value="&lt;font style=&quot;font-size: 16px&quot;&gt;PDHH35160200&lt;/font&gt;" style="text;html=1;strokeColor=none;fillColor=none;align=center;verticalAlign=middle;whiteSpace=wrap;rounded=0;" vertex="1" parent="1">
          <mxGeometry x="2770" y="297.5" width="160" height="20" as="geometry"/>
        </mxCell>
        <mxCell id="EKbMAt9sdjQ3x5RYB2Aw-129" value="&lt;font style=&quot;font-size: 16px&quot;&gt;PDAH35160200&lt;/font&gt;" style="text;html=1;strokeColor=none;fillColor=none;align=center;verticalAlign=middle;whiteSpace=wrap;rounded=0;" vertex="1" parent="1">
          <mxGeometry x="2940" y="270" width="160" height="20" as="geometry"/>
        </mxCell>
        <mxCell id="EKbMAt9sdjQ3x5RYB2Aw-132" value="&lt;font style=&quot;font-size: 16px&quot;&gt;PDLL35100200&lt;/font&gt;" style="text;html=1;strokeColor=none;fillColor=none;align=center;verticalAlign=middle;whiteSpace=wrap;rounded=0;" vertex="1" parent="1">
          <mxGeometry x="2920" y="380" width="160" height="20" as="geometry"/>
        </mxCell>
        <mxCell id="EKbMAt9sdjQ3x5RYB2Aw-133" value="&lt;font style=&quot;font-size: 16px&quot;&gt;PDLA35100200&lt;/font&gt;" style="text;html=1;strokeColor=none;fillColor=none;align=center;verticalAlign=middle;whiteSpace=wrap;rounded=0;" vertex="1" parent="1">
          <mxGeometry x="3120" y="345" width="160" height="20" as="geometry"/>
        </mxCell>
        <mxCell id="EKbMAt9sdjQ3x5RYB2Aw-134" value="&lt;font style=&quot;font-size: 20px&quot;&gt;PLHH35160205&lt;/font&gt;" style="text;html=1;strokeColor=none;fillColor=none;align=center;verticalAlign=middle;whiteSpace=wrap;rounded=0;" vertex="1" parent="1">
          <mxGeometry x="2550" y="440" width="120" height="20" as="geometry"/>
        </mxCell>
        <mxCell id="EKbMAt9sdjQ3x5RYB2Aw-135" value="&lt;font style=&quot;font-size: 20px&quot;&gt;PLLL35160205&lt;/font&gt;" style="text;html=1;strokeColor=none;fillColor=none;align=center;verticalAlign=middle;whiteSpace=wrap;rounded=0;" vertex="1" parent="1">
          <mxGeometry x="2550" y="470" width="120" height="20" as="geometry"/>
        </mxCell>
        <mxCell id="EKbMAt9sdjQ3x5RYB2Aw-138" value="&lt;font style=&quot;font-size: 20px&quot;&gt;PALL35160205&lt;/font&gt;" style="text;html=1;strokeColor=none;fillColor=none;align=center;verticalAlign=middle;whiteSpace=wrap;rounded=0;" vertex="1" parent="1">
          <mxGeometry x="2550" y="500" width="120" height="20" as="geometry"/>
        </mxCell>
        <mxCell id="EKbMAt9sdjQ3x5RYB2Aw-140" style="edgeStyle=orthogonalEdgeStyle;rounded=0;orthogonalLoop=1;jettySize=auto;html=1;entryX=0;entryY=0.5;entryDx=0;entryDy=0;" edge="1" parent="1" source="EKbMAt9sdjQ3x5RYB2Aw-139" target="EKbMAt9sdjQ3x5RYB2Aw-21">
          <mxGeometry relative="1" as="geometry">
            <Array as="points">
              <mxPoint x="3289" y="571"/>
              <mxPoint x="3289" y="-69"/>
              <mxPoint x="40" y="-69"/>
              <mxPoint x="40" y="799"/>
            </Array>
          </mxGeometry>
        </mxCell>
        <mxCell id="EKbMAt9sdjQ3x5RYB2Aw-145" style="edgeStyle=orthogonalEdgeStyle;rounded=0;orthogonalLoop=1;jettySize=auto;html=1;entryX=0;entryY=0.5;entryDx=0;entryDy=0;exitX=0;exitY=0.5;exitDx=0;exitDy=0;" edge="1" parent="1" source="EKbMAt9sdjQ3x5RYB2Aw-139" target="EKbMAt9sdjQ3x5RYB2Aw-141">
          <mxGeometry relative="1" as="geometry">
            <Array as="points">
              <mxPoint x="2770" y="570"/>
              <mxPoint x="2770" y="640"/>
            </Array>
          </mxGeometry>
        </mxCell>
        <mxCell id="EKbMAt9sdjQ3x5RYB2Aw-147" style="edgeStyle=orthogonalEdgeStyle;rounded=0;orthogonalLoop=1;jettySize=auto;html=1;entryX=0;entryY=0.5;entryDx=0;entryDy=0;" edge="1" parent="1" source="EKbMAt9sdjQ3x5RYB2Aw-139" target="EKbMAt9sdjQ3x5RYB2Aw-146">
          <mxGeometry relative="1" as="geometry">
            <Array as="points">
              <mxPoint x="2770" y="571"/>
              <mxPoint x="2770" y="716"/>
            </Array>
          </mxGeometry>
        </mxCell>
        <mxCell id="EKbMAt9sdjQ3x5RYB2Aw-149" style="edgeStyle=orthogonalEdgeStyle;rounded=0;orthogonalLoop=1;jettySize=auto;html=1;entryX=0;entryY=0.5;entryDx=0;entryDy=0;" edge="1" parent="1" source="EKbMAt9sdjQ3x5RYB2Aw-139" target="EKbMAt9sdjQ3x5RYB2Aw-148">
          <mxGeometry relative="1" as="geometry">
            <Array as="points">
              <mxPoint x="2770" y="571"/>
              <mxPoint x="2770" y="786"/>
            </Array>
          </mxGeometry>
        </mxCell>
        <mxCell id="EKbMAt9sdjQ3x5RYB2Aw-151" style="edgeStyle=orthogonalEdgeStyle;rounded=0;orthogonalLoop=1;jettySize=auto;html=1;entryX=0;entryY=0.5;entryDx=0;entryDy=0;" edge="1" parent="1" source="EKbMAt9sdjQ3x5RYB2Aw-139" target="EKbMAt9sdjQ3x5RYB2Aw-150">
          <mxGeometry relative="1" as="geometry">
            <Array as="points">
              <mxPoint x="2770" y="571"/>
              <mxPoint x="2770" y="866"/>
            </Array>
          </mxGeometry>
        </mxCell>
        <mxCell id="EKbMAt9sdjQ3x5RYB2Aw-139" value="&lt;font style=&quot;font-size: 20px&quot;&gt;PAHH35160205&lt;/font&gt;" style="text;html=1;strokeColor=none;fillColor=none;align=center;verticalAlign=middle;whiteSpace=wrap;rounded=0;" vertex="1" parent="1">
          <mxGeometry x="2810" y="560" width="160" height="20" as="geometry"/>
        </mxCell>
        <mxCell id="EKbMAt9sdjQ3x5RYB2Aw-141" value="&lt;span style=&quot;font-size: 20px&quot;&gt;общий fail&lt;/span&gt;" style="text;html=1;strokeColor=none;fillColor=none;align=center;verticalAlign=middle;whiteSpace=wrap;rounded=0;" vertex="1" parent="1">
          <mxGeometry x="2790" y="630" width="160" height="20" as="geometry"/>
        </mxCell>
        <mxCell id="EKbMAt9sdjQ3x5RYB2Aw-146" value="&lt;span style=&quot;font-size: 20px&quot;&gt;интерлок помпы (&lt;/span&gt;&lt;span style=&quot;font-size: 20px&quot;&gt;MI_35160108)&lt;/span&gt;" style="text;html=1;strokeColor=none;fillColor=none;align=center;verticalAlign=middle;whiteSpace=wrap;rounded=0;" vertex="1" parent="1">
          <mxGeometry x="2790" y="680" width="160" height="70" as="geometry"/>
        </mxCell>
        <mxCell id="EKbMAt9sdjQ3x5RYB2Aw-148" value="&lt;span style=&quot;font-size: 20px&quot;&gt;запуск помпы (&lt;/span&gt;&lt;span style=&quot;font-size: 20px&quot;&gt;MPSt35160108)&lt;/span&gt;" style="text;html=1;strokeColor=none;fillColor=none;align=center;verticalAlign=middle;whiteSpace=wrap;rounded=0;" vertex="1" parent="1">
          <mxGeometry x="2790" y="750" width="160" height="70" as="geometry"/>
        </mxCell>
        <mxCell id="EKbMAt9sdjQ3x5RYB2Aw-150" value="&lt;span style=&quot;font-size: 20px&quot;&gt;запуск темпера (&lt;/span&gt;&lt;span style=&quot;font-size: 20px&quot;&gt;MPSt35160201)&lt;/span&gt;" style="text;html=1;strokeColor=none;fillColor=none;align=center;verticalAlign=middle;whiteSpace=wrap;rounded=0;" vertex="1" parent="1">
          <mxGeometry x="2790" y="830" width="160" height="70" as="geometry"/>
        </mxCell>
      </root>
    </mxGraphModel>
  </diagram>
</mxfile>
